HIERARCHY
ROOT tetra_large
{
	OFFSET 0.000000 0.000000 0.000000
	CHANNELS 6 Xposition Yposition Zposition Yrotation Xrotation Zrotation
	End Site
	{
		OFFSET 0.000000 0.000000 0.000000
	}
}
MOTION
Frames: 96
Frame Time: 0.008333334
-1.538684 2.081429 3.747757 -92.789310 -56.453400 -44.704160 
-1.537589 2.078769 3.751594 -92.127870 -56.528960 -45.141240 
-1.537304 2.077051 3.756479 -91.469480 -56.552670 -45.470790 
-1.536380 2.075155 3.760898 -90.872860 -56.528020 -45.928470 
-1.534682 2.072757 3.766035 -90.437680 -56.454250 -46.162170 
-1.532783 2.070930 3.770402 -89.907170 -56.525180 -46.493190 
-1.531999 2.069068 3.775345 -89.632840 -56.461940 -46.613370 
-1.531454 2.066999 3.778599 -89.470640 -56.404570 -46.562260 
-1.530812 2.065484 3.781237 -89.221340 -56.350250 -46.661500 
-1.531110 2.064258 3.783502 -89.356110 -56.282100 -46.447940 
-1.531298 2.063394 3.785342 -89.440160 -56.270260 -46.192290 
-1.531664 2.062774 3.786684 -89.560580 -56.229770 -46.019530 
-1.531259 2.062313 3.787714 -89.622440 -56.228150 -45.822140 
-1.532021 2.061626 3.789781 -89.913450 -56.040590 -45.499510 
-1.531626 2.060993 3.791839 -89.889740 -56.003880 -45.449310 
-1.531687 2.060336 3.794100 -89.817200 -55.843780 -45.400970 
-1.532484 2.059823 3.796728 -89.947050 -55.744780 -45.190800 
-1.533830 2.058684 3.798342 -89.965480 -55.651610 -45.080350 
-1.534292 2.056587 3.799452 -90.158170 -55.410830 -44.849000 
-1.534596 2.055367 3.799798 -90.228450 -55.232270 -44.754730 
-1.535572 2.054682 3.801328 -90.151980 -55.116820 -44.619080 
-1.537034 2.053263 3.801821 -90.117740 -54.988830 -44.654110 
-1.537814 2.052675 3.803681 -90.052250 -54.768800 -44.648560 
-1.539697 2.051973 3.805084 -90.104640 -54.501560 -44.430760 
-1.541359 2.051495 3.805782 -90.074770 -54.411470 -44.445770 
-1.542656 2.052580 3.808108 -90.168150 -54.250700 -44.187260 
-1.542705 2.054017 3.809867 -90.307950 -54.070220 -44.010650 
-1.543010 2.056968 3.811174 -90.404970 -53.977780 -43.725310 
-1.544275 2.060111 3.814781 -90.440280 -53.772220 -43.329710 
-1.545536 2.062474 3.817187 -90.444400 -53.479680 -43.202550 
-1.548112 2.064874 3.819950 -90.253110 -53.170170 -43.179500 
-1.551089 2.068064 3.823211 -90.288210 -52.923680 -43.028720 
-1.554917 2.071810 3.828027 -90.083620 -52.626950 -43.102940 
-1.558199 2.074524 3.833744 -89.969480 -52.225340 -43.205320 
-1.561262 2.077243 3.839907 -89.603030 -51.834750 -43.527440 
-1.565876 2.081393 3.847447 -89.415890 -51.593930 -43.705260 
-1.570170 2.085281 3.854336 -89.078610 -51.420620 -44.197140 
-1.575068 2.089132 3.861893 -88.979740 -50.924290 -44.439450 
-1.579530 2.093916 3.869755 -88.964290 -50.627720 -44.623230 
-1.584876 2.098670 3.879094 -88.535710 -50.472200 -45.093690 
-1.590410 2.103889 3.889778 -88.200230 -50.125640 -45.764590 
-1.595583 2.109984 3.901343 -87.620730 -49.771910 -46.541810 
-1.602246 2.117535 3.915046 -87.035490 -49.492070 -47.421910 
-1.609468 2.125258 3.930185 -86.570530 -49.044250 -48.444730 
-1.617391 2.133617 3.946119 -85.692690 -48.853760 -49.769870 
-1.626411 2.143043 3.965578 -85.162350 -48.162900 -50.942380 
-1.634564 2.152007 3.985457 -84.202450 -47.313450 -52.573520 
-1.644337 2.161582 4.005945 -83.506160 -46.477780 -54.112700 
-1.655259 2.170829 4.027860 -82.984620 -45.793210 -55.475680 
-1.664383 2.180892 4.048792 -82.097320 -45.110660 -57.022430 
-1.673448 2.191299 4.069505 -81.639800 -44.593840 -58.388730 
-1.680325 2.202475 4.089746 -81.164670 -44.036010 -59.802610 
-1.688082 2.214207 4.110487 -80.966860 -43.354310 -61.087250 
-1.694373 2.226416 4.131184 -80.572750 -42.766940 -62.747410 
-1.698227 2.237931 4.149474 -80.624940 -41.500400 -64.648560 
-1.706414 2.251128 4.175653 -80.135220 -41.565400 -65.976260 
-1.711892 2.263704 4.199123 -79.817410 -41.021270 -67.918580 
-1.715958 2.276297 4.222938 -79.849210 -40.078740 -69.704680 
-1.721561 2.288673 4.246023 -79.677890 -39.545750 -71.827760 
-1.726754 2.299365 4.270404 -79.804020 -38.892580 -73.868800 
-1.730541 2.308207 4.292965 -79.918120 -37.980100 -76.161930 
-1.735571 2.315305 4.313019 -80.325200 -37.089020 -78.244510 
-1.737731 2.321705 4.330723 -80.777680 -36.114470 -80.263640 
-1.739105 2.327775 4.345786 -81.513120 -35.528020 -82.220640 
-1.736626 2.333083 4.356667 -82.440220 -34.621030 -84.051850 
-1.733863 2.338471 4.364453 -83.256960 -34.142180 -85.596860 
-1.729025 2.342110 4.369895 -84.403750 -33.675230 -86.770940 
-1.722210 2.345973 4.373636 -85.331570 -33.628600 -87.822810 
-1.712826 2.351315 4.373434 -86.306880 -33.740110 -88.561950 
-1.701022 2.357186 4.370643 -87.583650 -34.060880 -89.135590 
-1.687171 2.363047 4.366208 -88.718110 -34.434600 -89.324980 
-1.672504 2.369753 4.359252 -90.282560 -34.906830 -89.105900 
-1.656116 2.377086 4.349388 -91.742550 -35.547090 -88.710570 
-1.640009 2.384724 4.339306 -93.254270 -35.875090 -88.109380 
-1.623990 2.391380 4.327908 -94.821470 -36.410710 -87.248780 
-1.609060 2.398952 4.318810 -96.347960 -36.961490 -86.409880 
-1.593923 2.405354 4.308467 -97.547940 -37.356410 -85.720760 
-1.580072 2.411421 4.301513 -98.544190 -37.954650 -84.991180 
-1.567343 2.416708 4.294578 -99.312100 -38.368530 -84.313780 
-1.554153 2.422521 4.286243 -100.063400 -38.871090 -83.581970 
-1.541230 2.426544 4.278579 -100.966000 -39.534210 -82.721740 
-1.528119 2.430254 4.270264 -101.873700 -40.018590 -81.681640 
-1.516108 2.432213 4.260120 -102.838100 -40.531160 -80.702120 
-1.502633 2.433197 4.249105 -104.018700 -41.086980 -79.526250 
-1.491389 2.431890 4.239323 -105.146000 -41.517030 -78.452580 
-1.480337 2.430176 4.228463 -106.124700 -41.723940 -77.534060 
-1.471792 2.428746 4.218588 -106.902500 -42.079740 -76.755740 
-1.463068 2.423616 4.210327 -107.996000 -41.881560 -75.711150 
-1.456653 2.419056 4.200457 -108.613800 -42.096590 -74.961430 
-1.449881 2.415060 4.191334 -109.219200 -42.315460 -74.538120 
-1.443838 2.408776 4.183290 -109.741700 -42.573850 -73.920810 
-1.435850 2.403165 4.176203 -110.261600 -42.862640 -73.270810 
-1.429255 2.395807 4.170384 -110.721400 -43.245330 -72.835600 
-1.421252 2.387737 4.164002 -111.098000 -43.814150 -72.622710 
-1.413317 2.379264 4.158773 -111.479900 -44.119420 -72.408080 
-1.407305 2.369121 4.153498 -111.931300 -44.288600 -71.977050 
